<svg xmlns="http://www.w3.org/2000/svg" xmlns:xlink="http://www.w3.org/1999/xlink" width="500" zoomAndPan="magnify" viewBox="0 0 375 374.999991" height="500" preserveAspectRatio="xMidYMid meet" version="1.0"><defs><g/><clipPath id="e910ae006d"><path d="M 255 144.960938 L 349.144531 144.960938 L 349.144531 239.105469 L 255 239.105469 Z M 255 144.960938 " clip-rule="nonzero"/></clipPath><clipPath id="c1fad0b23c"><path d="M 302.074219 144.960938 C 276.074219 144.960938 255 166.035156 255 192.03125 C 255 218.03125 276.074219 239.105469 302.074219 239.105469 C 328.070312 239.105469 349.144531 218.03125 349.144531 192.03125 C 349.144531 166.035156 328.070312 144.960938 302.074219 144.960938 Z M 302.074219 144.960938 " clip-rule="nonzero"/></clipPath></defs><g clip-path="url(#e910ae006d)"><g clip-path="url(#c1fad0b23c)"><path fill="#b3ddf1" d="M 255 144.960938 L 349.144531 144.960938 L 349.144531 239.105469 L 255 239.105469 Z M 255 144.960938 " fill-opacity="1" fill-rule="nonzero"/></g></g><g fill="#000000" fill-opacity="1"><g transform="translate(22.55869, 204.302527)"><g><path d="M 5.125 0 L 5.125 -22.625 L 1.15625 -22.625 L 1.15625 -28.84375 L 5.125 -28.84375 L 5.125 -32.21875 C 5.125 -35.707031 6.003906 -38.1875 7.765625 -39.65625 C 9.523438 -41.132812 11.921875 -41.875 14.953125 -41.875 L 18.140625 -41.875 L 18.140625 -35.53125 L 16.109375 -35.53125 C 14.828125 -35.53125 13.914062 -35.273438 13.375 -34.765625 C 12.832031 -34.265625 12.5625 -33.414062 12.5625 -32.21875 L 12.5625 -28.84375 L 18.78125 -28.84375 L 18.78125 -22.625 L 12.5625 -22.625 L 12.5625 0 Z M 5.125 0 "/></g></g></g><g fill="#000000" fill-opacity="1"><g transform="translate(43.434202, 204.302527)"><g><path d="M 3.78125 0 L 3.78125 -28.84375 L 10.40625 -28.84375 L 11.109375 -23.4375 C 12.148438 -25.300781 13.570312 -26.785156 15.375 -27.890625 C 17.1875 -28.992188 19.3125 -29.546875 21.75 -29.546875 L 21.75 -21.6875 L 19.65625 -21.6875 C 18.03125 -21.6875 16.578125 -21.4375 15.296875 -20.9375 C 14.015625 -20.4375 13.015625 -19.5625 12.296875 -18.3125 C 11.578125 -17.070312 11.21875 -15.347656 11.21875 -13.140625 L 11.21875 0 Z M 3.78125 0 "/></g></g></g><g fill="#000000" fill-opacity="1"><g transform="translate(66.461228, 204.302527)"><g><path d="M 17.796875 0.703125 C 14.890625 0.703125 12.3125 0.0820312 10.0625 -1.15625 C 7.8125 -2.40625 6.046875 -4.148438 4.765625 -6.390625 C 3.484375 -8.640625 2.84375 -11.238281 2.84375 -14.1875 C 2.84375 -17.175781 3.472656 -19.832031 4.734375 -22.15625 C 5.992188 -24.476562 7.738281 -26.289062 9.96875 -27.59375 C 12.195312 -28.894531 14.828125 -29.546875 17.859375 -29.546875 C 20.679688 -29.546875 23.175781 -28.925781 25.34375 -27.6875 C 27.519531 -26.445312 29.21875 -24.75 30.4375 -22.59375 C 31.664062 -20.4375 32.28125 -18.039062 32.28125 -15.40625 C 32.28125 -14.976562 32.269531 -14.53125 32.25 -14.0625 C 32.226562 -13.601562 32.195312 -13.125 32.15625 -12.625 L 10.234375 -12.625 C 10.390625 -10.375 11.175781 -8.609375 12.59375 -7.328125 C 14.007812 -6.046875 15.722656 -5.40625 17.734375 -5.40625 C 19.242188 -5.40625 20.515625 -5.742188 21.546875 -6.421875 C 22.578125 -7.097656 23.34375 -7.984375 23.84375 -9.078125 L 31.40625 -9.078125 C 30.863281 -7.253906 29.960938 -5.59375 28.703125 -4.09375 C 27.441406 -2.601562 25.890625 -1.429688 24.046875 -0.578125 C 22.203125 0.273438 20.117188 0.703125 17.796875 0.703125 Z M 17.859375 -23.5 C 16.035156 -23.5 14.425781 -22.984375 13.03125 -21.953125 C 11.632812 -20.921875 10.742188 -19.359375 10.359375 -17.265625 L 24.71875 -17.265625 C 24.601562 -19.171875 23.90625 -20.6875 22.625 -21.8125 C 21.34375 -22.9375 19.753906 -23.5 17.859375 -23.5 Z M 17.859375 -23.5 "/></g></g></g><g fill="#000000" fill-opacity="1"><g transform="translate(101.234364, 204.302527)"><g><path d="M 15.703125 0.703125 C 13.140625 0.703125 10.890625 0.285156 8.953125 -0.546875 C 7.015625 -1.378906 5.460938 -2.53125 4.296875 -4 C 3.140625 -5.476562 2.441406 -7.1875 2.203125 -9.125 L 9.71875 -9.125 C 9.945312 -8 10.570312 -7.039062 11.59375 -6.25 C 12.625 -5.457031 13.953125 -5.0625 15.578125 -5.0625 C 17.210938 -5.0625 18.40625 -5.390625 19.15625 -6.046875 C 19.914062 -6.703125 20.296875 -7.457031 20.296875 -8.3125 C 20.296875 -9.550781 19.753906 -10.394531 18.671875 -10.84375 C 17.585938 -11.289062 16.070312 -11.726562 14.125 -12.15625 C 12.882812 -12.425781 11.625 -12.753906 10.34375 -13.140625 C 9.070312 -13.523438 7.898438 -14.019531 6.828125 -14.625 C 5.765625 -15.226562 4.898438 -16.003906 4.234375 -16.953125 C 3.578125 -17.898438 3.25 -19.070312 3.25 -20.46875 C 3.25 -23.03125 4.265625 -25.179688 6.296875 -26.921875 C 8.335938 -28.671875 11.203125 -29.546875 14.890625 -29.546875 C 18.296875 -29.546875 21.015625 -28.75 23.046875 -27.15625 C 25.085938 -25.570312 26.300781 -23.382812 26.6875 -20.59375 L 19.65625 -20.59375 C 19.226562 -22.71875 17.617188 -23.78125 14.828125 -23.78125 C 13.429688 -23.78125 12.351562 -23.507812 11.59375 -22.96875 C 10.84375 -22.425781 10.46875 -21.75 10.46875 -20.9375 C 10.46875 -20.082031 11.03125 -19.398438 12.15625 -18.890625 C 13.28125 -18.390625 14.769531 -17.925781 16.625 -17.5 C 18.644531 -17.039062 20.5 -16.53125 22.1875 -15.96875 C 23.875 -15.40625 25.21875 -14.570312 26.21875 -13.46875 C 27.226562 -12.363281 27.734375 -10.78125 27.734375 -8.71875 C 27.773438 -6.9375 27.3125 -5.328125 26.34375 -3.890625 C 25.375 -2.460938 23.976562 -1.335938 22.15625 -0.515625 C 20.332031 0.296875 18.179688 0.703125 15.703125 0.703125 Z M 15.703125 0.703125 "/></g></g></g><g fill="#000000" fill-opacity="1"><g transform="translate(131.762619, 204.302527)"><g><path d="M 3.78125 0 L 3.78125 -41.875 L 11.21875 -41.875 L 11.21875 -24.421875 C 12.1875 -26.015625 13.492188 -27.265625 15.140625 -28.171875 C 16.796875 -29.085938 18.6875 -29.546875 20.8125 -29.546875 C 24.382812 -29.546875 27.148438 -28.421875 29.109375 -26.171875 C 31.066406 -23.921875 32.046875 -20.625 32.046875 -16.28125 L 32.046875 0 L 24.65625 0 L 24.65625 -15.578125 C 24.65625 -18.066406 24.160156 -19.96875 23.171875 -21.28125 C 22.179688 -22.601562 20.625 -23.265625 18.5 -23.265625 C 16.40625 -23.265625 14.664062 -22.523438 13.28125 -21.046875 C 11.90625 -19.578125 11.21875 -17.523438 11.21875 -14.890625 L 11.21875 0 Z M 3.78125 0 "/></g></g></g><g fill="#000000" fill-opacity="1"><g transform="translate(167.117246, 204.302527)"><g><path d="M 20.875 0.703125 C 18.707031 0.703125 16.804688 0.296875 15.171875 -0.515625 C 13.546875 -1.335938 12.226562 -2.484375 11.21875 -3.953125 L 10.40625 0 L 3.78125 0 L 3.78125 -41.875 L 11.21875 -41.875 L 11.21875 -24.71875 C 12.15625 -26 13.390625 -27.125 14.921875 -28.09375 C 16.453125 -29.0625 18.4375 -29.546875 20.875 -29.546875 C 23.59375 -29.546875 26.015625 -28.882812 28.140625 -27.5625 C 30.273438 -26.25 31.960938 -24.445312 33.203125 -22.15625 C 34.441406 -19.863281 35.0625 -17.265625 35.0625 -14.359375 C 35.0625 -11.453125 34.441406 -8.863281 33.203125 -6.59375 C 31.960938 -4.332031 30.273438 -2.550781 28.140625 -1.25 C 26.015625 0.0507812 23.59375 0.703125 20.875 0.703125 Z M 19.3125 -5.8125 C 21.675781 -5.8125 23.632812 -6.601562 25.1875 -8.1875 C 26.738281 -9.78125 27.515625 -11.835938 27.515625 -14.359375 C 27.515625 -16.878906 26.738281 -18.953125 25.1875 -20.578125 C 23.632812 -22.210938 21.675781 -23.03125 19.3125 -23.03125 C 16.90625 -23.03125 14.9375 -22.222656 13.40625 -20.609375 C 11.875 -19.003906 11.109375 -16.941406 11.109375 -14.421875 C 11.109375 -11.898438 11.875 -9.832031 13.40625 -8.21875 C 14.9375 -6.613281 16.90625 -5.8125 19.3125 -5.8125 Z M 19.3125 -5.8125 "/></g></g></g><g fill="#000000" fill-opacity="1"><g transform="translate(205.030429, 204.302527)"><g><path d="M 17.625 0.703125 C 14.832031 0.703125 12.320312 0.0625 10.09375 -1.21875 C 7.863281 -2.5 6.097656 -4.269531 4.796875 -6.53125 C 3.492188 -8.800781 2.84375 -11.429688 2.84375 -14.421875 C 2.84375 -17.410156 3.5 -20.035156 4.8125 -22.296875 C 6.132812 -24.566406 7.910156 -26.34375 10.140625 -27.625 C 12.378906 -28.90625 14.890625 -29.546875 17.671875 -29.546875 C 20.429688 -29.546875 22.925781 -28.90625 25.15625 -27.625 C 27.382812 -26.34375 29.144531 -24.566406 30.4375 -22.296875 C 31.738281 -20.035156 32.390625 -17.410156 32.390625 -14.421875 C 32.390625 -11.429688 31.738281 -8.800781 30.4375 -6.53125 C 29.144531 -4.269531 27.375 -2.5 25.125 -1.21875 C 22.875 0.0625 20.375 0.703125 17.625 0.703125 Z M 17.625 -5.75 C 19.5625 -5.75 21.242188 -6.476562 22.671875 -7.9375 C 24.109375 -9.394531 24.828125 -11.554688 24.828125 -14.421875 C 24.828125 -17.285156 24.109375 -19.445312 22.671875 -20.90625 C 21.242188 -22.363281 19.578125 -23.09375 17.671875 -23.09375 C 15.703125 -23.09375 14.007812 -22.363281 12.59375 -20.90625 C 11.175781 -19.445312 10.46875 -17.285156 10.46875 -14.421875 C 10.46875 -11.554688 11.175781 -9.394531 12.59375 -7.9375 C 14.007812 -6.476562 15.6875 -5.75 17.625 -5.75 Z M 17.625 -5.75 "/></g></g></g><g fill="#000000" fill-opacity="1"><g transform="translate(240.268756, 204.302527)"><g><path d="M 17.625 0.703125 C 14.832031 0.703125 12.320312 0.0625 10.09375 -1.21875 C 7.863281 -2.5 6.097656 -4.269531 4.796875 -6.53125 C 3.492188 -8.800781 2.84375 -11.429688 2.84375 -14.421875 C 2.84375 -17.410156 3.5 -20.035156 4.8125 -22.296875 C 6.132812 -24.566406 7.910156 -26.34375 10.140625 -27.625 C 12.378906 -28.90625 14.890625 -29.546875 17.671875 -29.546875 C 20.429688 -29.546875 22.925781 -28.90625 25.15625 -27.625 C 27.382812 -26.34375 29.144531 -24.566406 30.4375 -22.296875 C 31.738281 -20.035156 32.390625 -17.410156 32.390625 -14.421875 C 32.390625 -11.429688 31.738281 -8.800781 30.4375 -6.53125 C 29.144531 -4.269531 27.375 -2.5 25.125 -1.21875 C 22.875 0.0625 20.375 0.703125 17.625 0.703125 Z M 17.625 -5.75 C 19.5625 -5.75 21.242188 -6.476562 22.671875 -7.9375 C 24.109375 -9.394531 24.828125 -11.554688 24.828125 -14.421875 C 24.828125 -17.285156 24.109375 -19.445312 22.671875 -20.90625 C 21.242188 -22.363281 19.578125 -23.09375 17.671875 -23.09375 C 15.703125 -23.09375 14.007812 -22.363281 12.59375 -20.90625 C 11.175781 -19.445312 10.46875 -17.285156 10.46875 -14.421875 C 10.46875 -11.554688 11.175781 -9.394531 12.59375 -7.9375 C 14.007812 -6.476562 15.6875 -5.75 17.625 -5.75 Z M 17.625 -5.75 "/></g></g></g><g fill="#000000" fill-opacity="1"><g transform="translate(275.507095, 204.302527)"><g><path d="M 3.78125 0 L 3.78125 -41.875 L 11.21875 -41.875 L 11.21875 -17.15625 L 21.453125 -28.84375 L 30.296875 -28.84375 L 18.5 -15.703125 L 32.21875 0 L 22.90625 0 L 11.21875 -14.484375 L 11.21875 0 Z M 3.78125 0 "/></g></g></g><g fill="#000000" fill-opacity="1"><g transform="translate(308.535756, 204.302527)"><g><path d="M 15.703125 0.703125 C 13.140625 0.703125 10.890625 0.285156 8.953125 -0.546875 C 7.015625 -1.378906 5.460938 -2.53125 4.296875 -4 C 3.140625 -5.476562 2.441406 -7.1875 2.203125 -9.125 L 9.71875 -9.125 C 9.945312 -8 10.570312 -7.039062 11.59375 -6.25 C 12.625 -5.457031 13.953125 -5.0625 15.578125 -5.0625 C 17.210938 -5.0625 18.40625 -5.390625 19.15625 -6.046875 C 19.914062 -6.703125 20.296875 -7.457031 20.296875 -8.3125 C 20.296875 -9.550781 19.753906 -10.394531 18.671875 -10.84375 C 17.585938 -11.289062 16.070312 -11.726562 14.125 -12.15625 C 12.882812 -12.425781 11.625 -12.753906 10.34375 -13.140625 C 9.070312 -13.523438 7.898438 -14.019531 6.828125 -14.625 C 5.765625 -15.226562 4.898438 -16.003906 4.234375 -16.953125 C 3.578125 -17.898438 3.25 -19.070312 3.25 -20.46875 C 3.25 -23.03125 4.265625 -25.179688 6.296875 -26.921875 C 8.335938 -28.671875 11.203125 -29.546875 14.890625 -29.546875 C 18.296875 -29.546875 21.015625 -28.75 23.046875 -27.15625 C 25.085938 -25.570312 26.300781 -23.382812 26.6875 -20.59375 L 19.65625 -20.59375 C 19.226562 -22.71875 17.617188 -23.78125 14.828125 -23.78125 C 13.429688 -23.78125 12.351562 -23.507812 11.59375 -22.96875 C 10.84375 -22.425781 10.46875 -21.75 10.46875 -20.9375 C 10.46875 -20.082031 11.03125 -19.398438 12.15625 -18.890625 C 13.28125 -18.390625 14.769531 -17.925781 16.625 -17.5 C 18.644531 -17.039062 20.5 -16.53125 22.1875 -15.96875 C 23.875 -15.40625 25.21875 -14.570312 26.21875 -13.46875 C 27.226562 -12.363281 27.734375 -10.78125 27.734375 -8.71875 C 27.773438 -6.9375 27.3125 -5.328125 26.34375 -3.890625 C 25.375 -2.460938 23.976562 -1.335938 22.15625 -0.515625 C 20.332031 0.296875 18.179688 0.703125 15.703125 0.703125 Z M 15.703125 0.703125 "/></g></g></g><g fill="#fad02c" fill-opacity="1"><g transform="translate(339.075422, 204.302527)"><g><path d="M 6.984375 0.40625 C 5.617188 0.40625 4.5 -0.0195312 3.625 -0.875 C 2.757812 -1.726562 2.328125 -2.753906 2.328125 -3.953125 C 2.328125 -5.191406 2.757812 -6.238281 3.625 -7.09375 C 4.5 -7.945312 5.617188 -8.375 6.984375 -8.375 C 8.335938 -8.375 9.445312 -7.945312 10.3125 -7.09375 C 11.1875 -6.238281 11.625 -5.191406 11.625 -3.953125 C 11.625 -2.753906 11.1875 -1.726562 10.3125 -0.875 C 9.445312 -0.0195312 8.335938 0.40625 6.984375 0.40625 Z M 6.984375 0.40625 "/></g></g></g><g fill="#000000" fill-opacity="1"><g transform="translate(125.854831, 225.216386)"><g><path d="M 1.125 0 L 1.125 -7.765625 L 3.8125 -7.765625 C 4.613281 -7.765625 5.3125 -7.597656 5.90625 -7.265625 C 6.5 -6.941406 6.960938 -6.488281 7.296875 -5.90625 C 7.628906 -5.320312 7.796875 -4.648438 7.796875 -3.890625 C 7.796875 -3.117188 7.628906 -2.441406 7.296875 -1.859375 C 6.960938 -1.273438 6.5 -0.816406 5.90625 -0.484375 C 5.3125 -0.160156 4.613281 0 3.8125 0 Z M 2.109375 -0.9375 L 3.8125 -0.9375 C 4.40625 -0.9375 4.925781 -1.054688 5.375 -1.296875 C 5.820312 -1.546875 6.171875 -1.890625 6.421875 -2.328125 C 6.671875 -2.773438 6.796875 -3.296875 6.796875 -3.890625 C 6.796875 -4.472656 6.664062 -4.984375 6.40625 -5.421875 C 6.15625 -5.867188 5.804688 -6.210938 5.359375 -6.453125 C 4.910156 -6.703125 4.378906 -6.828125 3.765625 -6.828125 L 2.109375 -6.828125 Z M 2.109375 -0.9375 "/></g></g></g><g fill="#000000" fill-opacity="1"><g transform="translate(136.808803, 225.216386)"><g><path d="M 1.125 0 L 1.125 -7.765625 L 2.109375 -7.765625 L 2.109375 0 Z M 1.125 0 "/></g></g></g><g fill="#000000" fill-opacity="1"><g transform="translate(142.557935, 225.216386)"><g><path d="M 3.71875 0.140625 C 3.09375 0.140625 2.550781 0.0351562 2.09375 -0.171875 C 1.644531 -0.378906 1.296875 -0.671875 1.046875 -1.046875 C 0.796875 -1.429688 0.671875 -1.878906 0.671875 -2.390625 L 1.640625 -2.390625 C 1.660156 -1.890625 1.859375 -1.492188 2.234375 -1.203125 C 2.617188 -0.921875 3.113281 -0.78125 3.71875 -0.78125 C 4.257812 -0.78125 4.691406 -0.890625 5.015625 -1.109375 C 5.335938 -1.328125 5.5 -1.628906 5.5 -2.015625 C 5.5 -2.367188 5.34375 -2.65625 5.03125 -2.875 C 4.726562 -3.09375 4.222656 -3.285156 3.515625 -3.453125 C 2.554688 -3.679688 1.851562 -3.972656 1.40625 -4.328125 C 0.96875 -4.691406 0.75 -5.171875 0.75 -5.765625 C 0.75 -6.421875 1 -6.941406 1.5 -7.328125 C 2 -7.710938 2.675781 -7.90625 3.53125 -7.90625 C 4.40625 -7.90625 5.09375 -7.6875 5.59375 -7.25 C 6.101562 -6.8125 6.363281 -6.21875 6.375 -5.46875 L 5.40625 -5.46875 C 5.394531 -5.9375 5.21875 -6.304688 4.875 -6.578125 C 4.539062 -6.847656 4.09375 -6.984375 3.53125 -6.984375 C 2.976562 -6.984375 2.539062 -6.875 2.21875 -6.65625 C 1.90625 -6.4375 1.75 -6.140625 1.75 -5.765625 C 1.75 -5.453125 1.894531 -5.1875 2.1875 -4.96875 C 2.476562 -4.75 3.003906 -4.546875 3.765625 -4.359375 C 4.753906 -4.117188 5.457031 -3.8125 5.875 -3.4375 C 6.300781 -3.070312 6.515625 -2.609375 6.515625 -2.046875 C 6.515625 -1.367188 6.257812 -0.832031 5.75 -0.4375 C 5.25 -0.0507812 4.570312 0.140625 3.71875 0.140625 Z M 3.71875 0.140625 "/></g></g></g><g fill="#000000" fill-opacity="1"><g transform="translate(152.246764, 225.216386)"><g><path d="M 4.578125 0.140625 C 4.003906 0.140625 3.476562 0.0390625 3 -0.15625 C 2.519531 -0.351562 2.101562 -0.628906 1.75 -0.984375 C 1.394531 -1.347656 1.117188 -1.773438 0.921875 -2.265625 C 0.734375 -2.753906 0.640625 -3.296875 0.640625 -3.890625 C 0.640625 -4.472656 0.734375 -5.007812 0.921875 -5.5 C 1.117188 -5.988281 1.394531 -6.410156 1.75 -6.765625 C 2.101562 -7.128906 2.519531 -7.410156 3 -7.609375 C 3.476562 -7.804688 4.003906 -7.90625 4.578125 -7.90625 C 5.179688 -7.90625 5.738281 -7.789062 6.25 -7.5625 C 6.769531 -7.34375 7.210938 -7.023438 7.578125 -6.609375 C 7.941406 -6.191406 8.210938 -5.695312 8.390625 -5.125 L 7.34375 -5.125 C 7.144531 -5.6875 6.796875 -6.128906 6.296875 -6.453125 C 5.804688 -6.773438 5.242188 -6.9375 4.609375 -6.9375 C 4.023438 -6.9375 3.507812 -6.804688 3.0625 -6.546875 C 2.625 -6.285156 2.273438 -5.925781 2.015625 -5.46875 C 1.765625 -5.007812 1.640625 -4.484375 1.640625 -3.890625 C 1.640625 -3.285156 1.765625 -2.753906 2.015625 -2.296875 C 2.273438 -1.835938 2.625 -1.476562 3.0625 -1.21875 C 3.507812 -0.957031 4.023438 -0.828125 4.609375 -0.828125 C 5.265625 -0.828125 5.847656 -1 6.359375 -1.34375 C 6.867188 -1.6875 7.222656 -2.148438 7.421875 -2.734375 L 8.453125 -2.734375 C 8.296875 -2.148438 8.03125 -1.644531 7.65625 -1.21875 C 7.28125 -0.789062 6.828125 -0.457031 6.296875 -0.21875 C 5.773438 0.0195312 5.203125 0.140625 4.578125 0.140625 Z M 4.578125 0.140625 "/></g></g></g><g fill="#000000" fill-opacity="1"><g transform="translate(163.811107, 225.216386)"><g><path d="M 4.65625 0.140625 C 3.875 0.140625 3.179688 -0.03125 2.578125 -0.375 C 1.972656 -0.71875 1.5 -1.191406 1.15625 -1.796875 C 0.8125 -2.398438 0.640625 -3.097656 0.640625 -3.890625 C 0.640625 -4.671875 0.8125 -5.363281 1.15625 -5.96875 C 1.5 -6.570312 1.972656 -7.046875 2.578125 -7.390625 C 3.179688 -7.734375 3.875 -7.90625 4.65625 -7.90625 C 5.445312 -7.90625 6.144531 -7.734375 6.75 -7.390625 C 7.351562 -7.046875 7.828125 -6.570312 8.171875 -5.96875 C 8.515625 -5.363281 8.6875 -4.671875 8.6875 -3.890625 C 8.6875 -3.097656 8.515625 -2.398438 8.171875 -1.796875 C 7.828125 -1.191406 7.351562 -0.71875 6.75 -0.375 C 6.144531 -0.03125 5.445312 0.140625 4.65625 0.140625 Z M 1.640625 -3.890625 C 1.640625 -3.285156 1.765625 -2.753906 2.015625 -2.296875 C 2.273438 -1.835938 2.628906 -1.476562 3.078125 -1.21875 C 3.535156 -0.957031 4.0625 -0.828125 4.65625 -0.828125 C 5.257812 -0.828125 5.785156 -0.957031 6.234375 -1.21875 C 6.679688 -1.476562 7.03125 -1.835938 7.28125 -2.296875 C 7.539062 -2.753906 7.671875 -3.285156 7.671875 -3.890625 C 7.671875 -4.492188 7.539062 -5.019531 7.28125 -5.46875 C 7.03125 -5.925781 6.679688 -6.285156 6.234375 -6.546875 C 5.785156 -6.804688 5.257812 -6.9375 4.65625 -6.9375 C 4.0625 -6.9375 3.535156 -6.804688 3.078125 -6.546875 C 2.628906 -6.285156 2.273438 -5.925781 2.015625 -5.46875 C 1.765625 -5.019531 1.640625 -4.492188 1.640625 -3.890625 Z M 1.640625 -3.890625 "/></g></g></g><g fill="#000000" fill-opacity="1"><g transform="translate(175.641799, 225.216386)"><g><path d="M 3.28125 0 L 0.1875 -7.765625 L 1.234375 -7.765625 L 2.515625 -4.5 L 3.734375 -1.40625 L 4.953125 -4.5 L 6.25 -7.765625 L 7.28125 -7.765625 L 4.1875 0 Z M 3.28125 0 "/></g></g></g><g fill="#000000" fill-opacity="1"><g transform="translate(185.61917, 225.216386)"><g><path d="M 1.125 0 L 1.125 -7.765625 L 5.84375 -7.765625 L 5.84375 -6.859375 L 2.109375 -6.859375 L 2.109375 -4.40625 L 5.5625 -4.40625 L 5.5625 -3.5 L 2.109375 -3.5 L 2.109375 -0.90625 L 5.96875 -0.90625 L 5.96875 0 Z M 1.125 0 "/></g></g></g><g fill="#000000" fill-opacity="1"><g transform="translate(194.819704, 225.216386)"><g><path d="M 1.125 0 L 1.125 -7.765625 L 4.09375 -7.765625 C 4.632812 -7.765625 5.101562 -7.660156 5.5 -7.453125 C 5.90625 -7.253906 6.21875 -6.96875 6.4375 -6.59375 C 6.65625 -6.226562 6.765625 -5.785156 6.765625 -5.265625 C 6.765625 -4.640625 6.601562 -4.117188 6.28125 -3.703125 C 5.957031 -3.296875 5.507812 -3.023438 4.9375 -2.890625 L 6.890625 0 L 5.71875 0 L 3.8125 -2.78125 L 2.109375 -2.78125 L 2.109375 0 Z M 2.109375 -3.71875 L 3.984375 -3.71875 C 4.554688 -3.71875 4.992188 -3.851562 5.296875 -4.125 C 5.609375 -4.394531 5.765625 -4.773438 5.765625 -5.265625 C 5.765625 -5.765625 5.609375 -6.148438 5.296875 -6.421875 C 4.992188 -6.691406 4.554688 -6.828125 3.984375 -6.828125 L 2.109375 -6.828125 Z M 2.109375 -3.71875 "/></g></g></g><g fill="#000000" fill-opacity="1"><g transform="translate(204.885858, 225.216386)"><g/></g></g><g fill="#000000" fill-opacity="1"><g transform="translate(210.146695, 225.216386)"><g><path d="M 3 0 L 3 -6.828125 L 0.375 -6.828125 L 0.375 -7.765625 L 6.59375 -7.765625 L 6.59375 -6.828125 L 3.984375 -6.828125 L 3.984375 0 Z M 3 0 "/></g></g></g><g fill="#000000" fill-opacity="1"><g transform="translate(219.64687, 225.216386)"><g><path d="M 6.21875 0 L 6.21875 -3.5 L 2.109375 -3.5 L 2.109375 0 L 1.125 0 L 1.125 -7.765625 L 2.109375 -7.765625 L 2.109375 -4.421875 L 6.21875 -4.421875 L 6.21875 -7.765625 L 7.203125 -7.765625 L 7.203125 0 Z M 6.21875 0 "/></g></g></g><g fill="#000000" fill-opacity="1"><g transform="translate(230.489872, 225.216386)"><g><path d="M 1.125 0 L 1.125 -7.765625 L 5.84375 -7.765625 L 5.84375 -6.859375 L 2.109375 -6.859375 L 2.109375 -4.40625 L 5.5625 -4.40625 L 5.5625 -3.5 L 2.109375 -3.5 L 2.109375 -0.90625 L 5.96875 -0.90625 L 5.96875 0 Z M 1.125 0 "/></g></g></g><g fill="#000000" fill-opacity="1"><g transform="translate(239.690406, 225.216386)"><g/></g></g><g fill="#000000" fill-opacity="1"><g transform="translate(244.951243, 225.216386)"><g><path d="M 1.125 0 L 1.125 -7.765625 L 3.8125 -7.765625 C 4.613281 -7.765625 5.3125 -7.597656 5.90625 -7.265625 C 6.5 -6.941406 6.960938 -6.488281 7.296875 -5.90625 C 7.628906 -5.320312 7.796875 -4.648438 7.796875 -3.890625 C 7.796875 -3.117188 7.628906 -2.441406 7.296875 -1.859375 C 6.960938 -1.273438 6.5 -0.816406 5.90625 -0.484375 C 5.3125 -0.160156 4.613281 0 3.8125 0 Z M 2.109375 -0.9375 L 3.8125 -0.9375 C 4.40625 -0.9375 4.925781 -1.054688 5.375 -1.296875 C 5.820312 -1.546875 6.171875 -1.890625 6.421875 -2.328125 C 6.671875 -2.773438 6.796875 -3.296875 6.796875 -3.890625 C 6.796875 -4.472656 6.664062 -4.984375 6.40625 -5.421875 C 6.15625 -5.867188 5.804688 -6.210938 5.359375 -6.453125 C 4.910156 -6.703125 4.378906 -6.828125 3.765625 -6.828125 L 2.109375 -6.828125 Z M 2.109375 -0.9375 "/></g></g></g><g fill="#000000" fill-opacity="1"><g transform="translate(255.905218, 225.216386)"><g><path d="M 1.125 0 L 1.125 -7.765625 L 2.109375 -7.765625 L 2.109375 0 Z M 1.125 0 "/></g></g></g><g fill="#000000" fill-opacity="1"><g transform="translate(261.654352, 225.216386)"><g><path d="M 1.125 0 L 1.125 -7.765625 L 5.578125 -7.765625 L 5.578125 -6.859375 L 2.109375 -6.859375 L 2.109375 -4.171875 L 5.296875 -4.171875 L 5.296875 -3.265625 L 2.109375 -3.265625 L 2.109375 0 Z M 1.125 0 "/></g></g></g><g fill="#000000" fill-opacity="1"><g transform="translate(270.355489, 225.216386)"><g><path d="M 1.125 0 L 1.125 -7.765625 L 5.578125 -7.765625 L 5.578125 -6.859375 L 2.109375 -6.859375 L 2.109375 -4.171875 L 5.296875 -4.171875 L 5.296875 -3.265625 L 2.109375 -3.265625 L 2.109375 0 Z M 1.125 0 "/></g></g></g><g fill="#000000" fill-opacity="1"><g transform="translate(279.056626, 225.216386)"><g><path d="M 1.125 0 L 1.125 -7.765625 L 5.84375 -7.765625 L 5.84375 -6.859375 L 2.109375 -6.859375 L 2.109375 -4.40625 L 5.5625 -4.40625 L 5.5625 -3.5 L 2.109375 -3.5 L 2.109375 -0.90625 L 5.96875 -0.90625 L 5.96875 0 Z M 1.125 0 "/></g></g></g><g fill="#000000" fill-opacity="1"><g transform="translate(288.25716, 225.216386)"><g><path d="M 1.125 0 L 1.125 -7.765625 L 4.09375 -7.765625 C 4.632812 -7.765625 5.101562 -7.660156 5.5 -7.453125 C 5.90625 -7.253906 6.21875 -6.96875 6.4375 -6.59375 C 6.65625 -6.226562 6.765625 -5.785156 6.765625 -5.265625 C 6.765625 -4.640625 6.601562 -4.117188 6.28125 -3.703125 C 5.957031 -3.296875 5.507812 -3.023438 4.9375 -2.890625 L 6.890625 0 L 5.71875 0 L 3.8125 -2.78125 L 2.109375 -2.78125 L 2.109375 0 Z M 2.109375 -3.71875 L 3.984375 -3.71875 C 4.554688 -3.71875 4.992188 -3.851562 5.296875 -4.125 C 5.609375 -4.394531 5.765625 -4.773438 5.765625 -5.265625 C 5.765625 -5.765625 5.609375 -6.148438 5.296875 -6.421875 C 4.992188 -6.691406 4.554688 -6.828125 3.984375 -6.828125 L 2.109375 -6.828125 Z M 2.109375 -3.71875 "/></g></g></g><g fill="#000000" fill-opacity="1"><g transform="translate(298.323314, 225.216386)"><g><path d="M 1.125 0 L 1.125 -7.765625 L 5.84375 -7.765625 L 5.84375 -6.859375 L 2.109375 -6.859375 L 2.109375 -4.40625 L 5.5625 -4.40625 L 5.5625 -3.5 L 2.109375 -3.5 L 2.109375 -0.90625 L 5.96875 -0.90625 L 5.96875 0 Z M 1.125 0 "/></g></g></g><g fill="#000000" fill-opacity="1"><g transform="translate(307.523848, 225.216386)"><g><path d="M 1.125 0 L 1.125 -7.765625 L 2.046875 -7.765625 L 6.34375 -1.6875 L 6.34375 -7.765625 L 7.296875 -7.765625 L 7.296875 0 L 6.390625 0 L 2.09375 -6.078125 L 2.09375 0 Z M 1.125 0 "/></g></g></g><g fill="#000000" fill-opacity="1"><g transform="translate(318.466711, 225.216386)"><g><path d="M 4.578125 0.140625 C 4.003906 0.140625 3.476562 0.0390625 3 -0.15625 C 2.519531 -0.351562 2.101562 -0.628906 1.75 -0.984375 C 1.394531 -1.347656 1.117188 -1.773438 0.921875 -2.265625 C 0.734375 -2.753906 0.640625 -3.296875 0.640625 -3.890625 C 0.640625 -4.472656 0.734375 -5.007812 0.921875 -5.5 C 1.117188 -5.988281 1.394531 -6.410156 1.75 -6.765625 C 2.101562 -7.128906 2.519531 -7.410156 3 -7.609375 C 3.476562 -7.804688 4.003906 -7.90625 4.578125 -7.90625 C 5.179688 -7.90625 5.738281 -7.789062 6.25 -7.5625 C 6.769531 -7.34375 7.210938 -7.023438 7.578125 -6.609375 C 7.941406 -6.191406 8.210938 -5.695312 8.390625 -5.125 L 7.34375 -5.125 C 7.144531 -5.6875 6.796875 -6.128906 6.296875 -6.453125 C 5.804688 -6.773438 5.242188 -6.9375 4.609375 -6.9375 C 4.023438 -6.9375 3.507812 -6.804688 3.0625 -6.546875 C 2.625 -6.285156 2.273438 -5.925781 2.015625 -5.46875 C 1.765625 -5.007812 1.640625 -4.484375 1.640625 -3.890625 C 1.640625 -3.285156 1.765625 -2.753906 2.015625 -2.296875 C 2.273438 -1.835938 2.625 -1.476562 3.0625 -1.21875 C 3.507812 -0.957031 4.023438 -0.828125 4.609375 -0.828125 C 5.265625 -0.828125 5.847656 -1 6.359375 -1.34375 C 6.867188 -1.6875 7.222656 -2.148438 7.421875 -2.734375 L 8.453125 -2.734375 C 8.296875 -2.148438 8.03125 -1.644531 7.65625 -1.21875 C 7.28125 -0.789062 6.828125 -0.457031 6.296875 -0.21875 C 5.773438 0.0195312 5.203125 0.140625 4.578125 0.140625 Z M 4.578125 0.140625 "/></g></g></g><g fill="#000000" fill-opacity="1"><g transform="translate(330.031056, 225.216386)"><g><path d="M 1.125 0 L 1.125 -7.765625 L 5.84375 -7.765625 L 5.84375 -6.859375 L 2.109375 -6.859375 L 2.109375 -4.40625 L 5.5625 -4.40625 L 5.5625 -3.5 L 2.109375 -3.5 L 2.109375 -0.90625 L 5.96875 -0.90625 L 5.96875 0 Z M 1.125 0 "/></g></g></g><g fill="#000000" fill-opacity="1"><g transform="translate(335.483714, 171.540043)"><g><path d="M 6.671875 -8.546875 L 6.671875 -7.6875 L 3.984375 -7.6875 L 3.984375 0 L 3 0 L 3 -7.6875 L 0.3125 -7.6875 L 0.3125 -8.546875 Z M 6.671875 -8.546875 "/></g></g></g><g fill="#000000" fill-opacity="1"><g transform="translate(342.456595, 171.540043)"><g><path d="M 2.21875 0 L 1.296875 0 L 1.296875 -8.546875 L 2.78125 -8.546875 L 5.375 -1.3125 L 5.5 -1.3125 L 8.078125 -8.546875 L 9.515625 -8.546875 L 9.515625 0 L 8.5625 0 L 8.5625 -6.96875 L 8.421875 -7 L 5.890625 0 L 4.890625 0 L 2.359375 -7 L 2.21875 -6.96875 Z M 2.21875 0 "/></g></g></g></svg>